<?xml version="1.0"?><svg fill="#000000" xmlns="http://www.w3.org/2000/svg"  viewBox="0 0 100 100" width="100px" height="100px">    <path d="M 50 13 C 47.43 13 45.199062 14.300547 43.039062 15.560547 C 41.749063 16.320547 40.519062 17.039687 39.289062 17.429688 C 39.031803 17.511792 38.770438 17.58431 38.503906 17.648438 C 36.592157 16.674318 34.911184 16 34 16 C 31.03009 16 28.491753 17.861144 27.476562 20.476562 C 25.785658 21.93321 24.850628 24.041186 23.949219 26.089844 C 23.339219 27.489844 22.750703 28.800859 21.970703 29.880859 C 21.190703 30.930859 20.110937 31.869141 18.960938 32.869141 C 17.090937 34.489141 15.159141 36.180547 14.369141 38.560547 C 13.619141 40.840547 14.159453 43.280391 14.689453 45.650391 C 15.009453 47.100391 15.349609 48.61 15.349609 50 C 15.349609 51.38 15.009453 52.889609 14.689453 54.349609 C 14.159453 56.709609 13.619141 59.159453 14.369141 61.439453 C 15.159141 63.819453 17.090938 65.500859 18.960938 67.130859 C 20.110937 68.130859 21.190703 69.069141 21.970703 70.119141 C 22.750703 71.189141 23.339219 72.510156 23.949219 73.910156 C 24.939219 76.160156 25.960469 78.479688 27.980469 79.929688 C 29.980469 81.369687 32.520469 81.619609 34.980469 81.849609 C 36.530469 81.999609 37.989062 82.150547 39.289062 82.560547 C 40.519062 82.960547 41.749063 83.669688 43.039062 84.429688 C 45.199063 85.689688 47.43 87 50 87 C 52.57 87 54.800938 85.689687 56.960938 84.429688 C 58.250937 83.669687 59.480938 82.960547 60.710938 82.560547 C 62.010937 82.150547 63.469531 81.999609 65.019531 81.849609 C 67.479531 81.619609 70.019766 81.369687 72.009766 79.929688 C 74.039766 78.479687 75.060781 76.160156 76.050781 73.910156 C 76.660781 72.510156 77.249297 71.189141 78.029297 70.119141 C 78.809297 69.069141 79.889063 68.130859 81.039062 67.130859 C 82.909063 65.500859 84.840859 63.819453 85.630859 61.439453 C 86.380859 59.159453 85.840547 56.709609 85.310547 54.349609 C 84.990547 52.889609 84.650391 51.38 84.650391 50 C 84.650391 48.61 84.990547 47.100391 85.310547 45.650391 C 85.650547 44.120391 86 42.559297 86 41.029297 C 86 40.189297 85.900859 39.370547 85.630859 38.560547 C 84.840859 36.180547 82.909063 34.489141 81.039062 32.869141 C 79.889062 31.869141 78.809297 30.930859 78.029297 29.880859 C 77.249297 28.800859 76.660781 27.489844 76.050781 26.089844 C 75.147574 24.037101 74.209272 21.925669 72.519531 20.46875 C 71.502242 17.857583 68.966852 16 66 16 C 65.088816 16 63.407843 16.674318 61.496094 17.648438 C 61.229562 17.58431 60.968197 17.511792 60.710938 17.429688 C 59.480938 17.039687 58.250937 16.320547 56.960938 15.560547 C 54.800937 14.300547 52.57 13 50 13 z M 50 15 C 52.03 15 53.929219 16.109063 55.949219 17.289062 C 56.972923 17.891241 58.022677 18.492841 59.103516 18.957031 C 56.887081 20.237318 54.682729 21.691351 53.123047 22.886719 C 52.211928 22.328203 51.144993 22 50 22 C 48.855007 22 47.788072 22.328203 46.876953 22.886719 C 45.317271 21.691351 43.112919 20.237318 40.896484 18.957031 C 41.977323 18.492841 43.027077 17.891241 44.050781 17.289062 C 46.070781 16.109063 47.97 15 50 15 z M 34 17 C 36.487816 17 42.741397 21.131287 45.996094 23.544922 C 45.283543 24.186009 44.726581 24.992253 44.384766 25.90625 L 37.634766 24.015625 C 37.372766 23.942625 37.092578 24.097281 37.017578 24.363281 C 36.943578 24.628281 37.099234 24.904516 37.365234 24.978516 L 44.111328 26.869141 C 44.040994 27.236003 44 27.612904 44 28 C 44 28.385767 44.041465 28.761269 44.111328 29.126953 L 37.365234 31.015625 C 37.099234 31.089625 36.943578 31.367813 37.017578 31.632812 C 37.079578 31.853813 37.280047 31.996094 37.498047 31.996094 C 37.543047 31.996094 37.589766 31.991516 37.634766 31.978516 L 44.382812 30.087891 C 44.724432 31.004257 45.282041 31.81264 45.996094 32.455078 C 42.741397 34.868713 36.487816 39 34 39 C 30.69 39 28 36.31 28 33 L 28 23 C 28 19.69 30.69 17 34 17 z M 66 17 C 69.31 17 72 19.69 72 23 L 72 33 C 72 36.31 69.31 39 66 39 C 63.512184 39 57.258603 34.868713 54.003906 32.455078 C 54.717513 31.813041 55.27551 31.005507 55.617188 30.089844 L 62.365234 31.978516 C 62.410234 31.991516 62.455 31.998047 62.5 31.998047 C 62.718 31.998047 62.918469 31.852813 62.980469 31.632812 C 63.055469 31.366813 62.900766 31.089625 62.634766 31.015625 L 55.888672 29.126953 C 55.958535 28.761269 56 28.385767 56 28 C 56 27.612904 55.959006 27.236003 55.888672 26.869141 L 62.634766 24.978516 C 62.900766 24.904516 63.054469 24.628281 62.980469 24.363281 C 62.905469 24.097281 62.629234 23.942625 62.365234 24.015625 L 55.615234 25.90625 C 55.273419 24.992253 54.716457 24.186009 54.003906 23.544922 C 57.258603 21.131287 63.512184 17 66 17 z M 50 23 C 52.757 23 55 25.243 55 28 C 55 30.757 52.757 33 50 33 C 47.243 33 45 30.757 45 28 C 45 25.243 47.243 23 50 23 z M 27 24.324219 L 27 33 C 27 36.86 30.14 40 34 40 C 34.319202 40 34.744204 39.905993 35.228516 39.757812 C 33.19596 42.66476 32 46.196465 32 50 C 32 51.367818 32.165069 52.695558 32.455078 53.976562 C 28.607586 53.870584 25.331467 53.183962 22.71875 51.917969 C 22.47075 51.795969 22.170781 51.899437 22.050781 52.148438 C 21.929781 52.397438 22.03225 52.696406 22.28125 52.816406 C 25.088123 54.177998 28.601106 54.898267 32.716797 54.980469 C 34.882883 62.490069 41.79969 68 50 68 C 59.93 68 68 59.93 68 50 C 68 48.634917 67.834569 47.307493 67.544922 46.027344 C 70.064428 46.097576 72.362333 46.405672 74.361328 46.976562 C 74.407328 46.989562 74.454 46.996094 74.5 46.996094 C 74.718 46.996094 74.918469 46.852812 74.980469 46.632812 C 75.055469 46.367812 74.902719 46.091625 74.636719 46.015625 C 72.481287 45.400438 70.002555 45.07666 67.285156 45.021484 C 66.735685 43.11719 65.881124 41.344812 64.771484 39.757812 C 65.255796 39.905993 65.680798 40 66 40 C 69.86 40 73 36.86 73 33 L 73 24.324219 C 73.437394 25.119351 73.824845 25.996279 74.220703 26.890625 C 74.850703 28.330625 75.499922 29.810547 76.419922 31.060547 C 77.329922 32.290547 78.550703 33.350859 79.720703 34.380859 C 80.600703 35.140859 81.440391 35.870391 82.150391 36.650391 C 82.860391 37.430391 83.420469 38.259687 83.730469 39.179688 C 84.310469 40.939687 83.849375 43.010937 83.359375 45.210938 C 83.009375 46.770938 82.650391 48.39 82.650391 50 C 82.650391 50.386365 82.67221 50.774397 82.708984 51.162109 C 82.220754 50.513776 81.603208 49.837131 80.822266 49.175781 C 80.610266 48.997781 80.296188 49.024375 80.117188 49.234375 C 79.939187 49.445375 79.967734 49.760453 80.177734 49.939453 C 82.004397 51.485878 82.849637 53.136533 83.226562 54.138672 C 83.273762 54.354627 83.311608 54.574792 83.359375 54.789062 C 83.849375 56.979062 84.310469 59.060547 83.730469 60.810547 C 83.120469 62.670547 81.470703 64.099141 79.720703 65.619141 C 78.550703 66.639141 77.329922 67.699687 76.419922 68.929688 C 75.499922 70.179688 74.850703 71.669609 74.220703 73.099609 C 73.300703 75.199609 72.429609 77.180547 70.849609 78.310547 C 69.289609 79.430547 67.120313 79.639375 64.820312 79.859375 C 63.240313 80.019375 61.599609 80.180156 60.099609 80.660156 C 58.659609 81.120156 57.279219 81.920937 55.949219 82.710938 C 53.929219 83.880938 52.03 85 50 85 C 48.814847 85 47.673625 84.597447 46.527344 84.046875 C 49.043833 83.022412 54.028979 79.729836 54.878906 69.539062 C 54.900906 69.264063 54.696875 69.023 54.421875 69 C 54.138875 68.967 53.905813 69.182031 53.882812 69.457031 C 52.944762 80.709171 46.83447 83.012672 45.294922 83.417969 C 44.883024 83.188629 44.470808 82.954221 44.050781 82.710938 C 42.720781 81.920937 41.340391 81.120156 39.900391 80.660156 C 38.400391 80.180156 36.759687 80.019375 35.179688 79.859375 C 32.879688 79.639375 30.710391 79.430547 29.150391 78.310547 C 27.570391 77.180547 26.699297 75.199609 25.779297 73.099609 C 25.149297 71.669609 24.500078 70.179687 23.580078 68.929688 C 22.670078 67.699687 21.449297 66.639141 20.279297 65.619141 C 18.529297 64.099141 16.879531 62.670547 16.269531 60.810547 C 15.689531 59.060547 16.150625 56.979063 16.640625 54.789062 C 16.990625 53.219062 17.349609 51.6 17.349609 50 C 17.349609 49.610505 17.327916 49.219753 17.291016 48.830078 C 17.79505 49.499508 18.434509 50.201144 19.251953 50.882812 C 19.345953 50.960813 19.457313 50.998047 19.570312 50.998047 C 19.714312 50.998047 19.856125 50.937359 19.953125 50.818359 C 20.131125 50.606359 20.102625 50.290281 19.890625 50.113281 C 18.009697 48.544551 17.150745 46.861018 16.771484 45.847656 C 16.725093 45.636525 16.687548 45.42008 16.640625 45.210938 C 16.150625 43.010937 15.689531 40.939688 16.269531 39.179688 C 16.879531 37.329687 18.529297 35.890859 20.279297 34.380859 C 21.449297 33.350859 22.670078 32.290547 23.580078 31.060547 C 24.500078 29.810547 25.149297 28.330625 25.779297 26.890625 C 26.175155 25.996279 26.562606 25.119351 27 24.324219 z M 46.876953 33.113281 C 47.289686 33.366286 47.730807 33.576574 48.201172 33.724609 L 48.310547 34.091797 L 49.480469 38.060547 L 47.039062 46.310547 L 45.130859 43.359375 C 45.030859 43.209375 44.870937 43.130859 44.710938 43.130859 C 44.640937 43.130859 44.57 43.139922 44.5 43.169922 L 41.289062 44.609375 L 44.080078 35.140625 L 44.099609 35.076172 C 45.151031 34.386361 46.08469 33.720485 46.876953 33.113281 z M 53.123047 33.113281 C 53.91531 33.720485 54.848969 34.386361 55.900391 35.076172 L 55.919922 35.140625 L 58.710938 44.609375 L 55.5 43.169922 C 55.28 43.069922 55.009141 43.149375 54.869141 43.359375 L 52.960938 46.310547 L 50.519531 38.060547 L 50 36.289062 L 49.330078 34.019531 L 49.3125 33.957031 C 49.538345 33.982921 49.767323 34 50 34 C 51.144993 34 52.211928 33.671797 53.123047 33.113281 z M 42.820312 35.886719 L 40.019531 45.369141 C 39.969531 45.559141 40.019922 45.760625 40.169922 45.890625 C 40.319922 46.020625 40.529219 46.050703 40.699219 45.970703 L 44.519531 44.259766 L 46.789062 47.769531 C 46.889063 47.909531 47.050937 48 47.210938 48 C 47.240938 48 47.259063 48.000234 47.289062 47.990234 C 47.479062 47.960234 47.639453 47.830625 47.689453 47.640625 L 50 39.820312 L 52.310547 47.640625 C 52.360547 47.830625 52.520938 47.960234 52.710938 47.990234 C 52.740938 48.000234 52.759062 48 52.789062 48 C 52.949062 48 53.110938 47.909531 53.210938 47.769531 L 55.480469 44.259766 L 59.300781 45.970703 C 59.470781 46.050703 59.680078 46.020625 59.830078 45.890625 C 59.980078 45.760625 60.030469 45.559141 59.980469 45.369141 L 57.179688 35.886719 C 58.134362 36.482476 59.105323 37.058611 60.070312 37.591797 C 63.683746 40.525947 66 44.997347 66 50 C 66 58.82 58.82 66 50 66 C 41.18 66 34 58.82 34 50 C 34 44.997347 36.316254 40.525947 39.929688 37.591797 C 40.894677 37.058611 41.865638 36.482476 42.820312 35.886719 z M 24.5 40 C 22.57 40 21 41.57 21 43.5 C 21 45.43 22.57 47 24.5 47 C 26.43 47 28 45.43 28 43.5 C 28 41.57 26.43 40 24.5 40 z M 24.5 41 C 25.878 41 27 42.122 27 43.5 C 27 44.878 25.878 46 24.5 46 C 23.122 46 22 44.878 22 43.5 C 22 42.122 23.122 41 24.5 41 z M 76.494141 46.681641 C 76.299141 46.684031 76.115109 46.802891 76.037109 46.994141 C 75.933109 47.250141 76.0575 47.542484 76.3125 47.646484 C 76.9955 47.925484 77.647 48.243797 78.25 48.591797 C 78.329 48.637797 78.415 48.658203 78.5 48.658203 C 78.672 48.658203 78.839594 48.56725 78.933594 48.40625 C 79.071594 48.16725 78.990953 47.862609 78.751953 47.724609 C 78.109953 47.354609 77.415453 47.016703 76.689453 46.720703 C 76.625453 46.694203 76.559141 46.680844 76.494141 46.681641 z M 73.5 50 C 71.57 50 70 51.57 70 53.5 C 70 55.43 71.57 57 73.5 57 C 75.43 57 77 55.43 77 53.5 C 77 51.57 75.43 50 73.5 50 z M 73.5 51 C 74.878 51 76 52.122 76 53.5 C 76 54.878 74.878 56 73.5 56 C 72.122 56 71 54.878 71 53.5 C 71 52.122 72.122 51 73.5 51 z M 28 59 C 25.794 59 24 60.794 24 63 C 24 65.206 25.794 67 28 67 C 30.206 67 32 65.206 32 63 C 32 60.794 30.206 59 28 59 z M 28 60 C 29.654 60 31 61.346 31 63 C 31 64.654 29.654 66 28 66 C 26.346 66 25 64.654 25 63 C 25 61.346 26.346 60 28 60 z M 66.5 67 C 64.019 67 62 69.019 62 71.5 C 62 73.981 64.019 76 66.5 76 C 68.981 76 71 73.981 71 71.5 C 71 69.019 68.981 67 66.5 67 z M 66.5 68 C 68.43 68 70 69.57 70 71.5 C 70 73.43 68.43 75 66.5 75 C 64.57 75 63 73.43 63 71.5 C 63 69.57 64.57 68 66.5 68 z M 44.5 72 C 42.57 72 41 73.57 41 75.5 C 41 77.43 42.57 79 44.5 79 C 46.43 79 48 77.43 48 75.5 C 48 73.57 46.43 72 44.5 72 z M 44.5 73 C 45.878 73 47 74.122 47 75.5 C 47 76.878 45.878 78 44.5 78 C 43.122 78 42 76.878 42 75.5 C 42 74.122 43.122 73 44.5 73 z"/></svg>