<?xml version="1.0" encoding="UTF-8" standalone="no" ?>
<!DOCTYPE svg PUBLIC "-//W3C//DTD SVG 1.1//EN" "http://www.w3.org/Graphics/SVG/1.1/DTD/svg11.dtd">
<svg xmlns="http://www.w3.org/2000/svg" xmlns:xlink="http://www.w3.org/1999/xlink" version="1.1" width="60" height="60" viewBox="0 0 60 60" xml:space="preserve">
<desc>Created with Fabric.js 4.2.0</desc>
<defs>
</defs>
<g transform="matrix(1 0 0 1 30 30)" id="6c49a699-0011-4e77-96b3-b07d0a454d36"  >
<rect style="stroke: none; stroke-width: 1; stroke-dasharray: none; stroke-linecap: butt; stroke-dashoffset: 0; stroke-linejoin: miter; stroke-miterlimit: 4; fill: rgb(255,255,255); fill-rule: nonzero; opacity: 1;" vector-effect="non-scaling-stroke"  x="-30" y="-30" rx="0" ry="0" width="60" height="60" />
</g>
<g transform="matrix(Infinity NaN NaN Infinity 0 0)" id="e1606e5d-8a93-4eb5-b077-292362342f8d"  >
</g>
<g transform="matrix(0.3 0 0 0.3 30 30)" style="" id="645181f7-1e84-48e9-a3aa-7876873afa44"  >
		<text xml:space="preserve" font-family="Lato" font-size="40" font-style="normal" font-weight="400" style="stroke: none; stroke-width: 1; stroke-dasharray: none; stroke-linecap: butt; stroke-dashoffset: 0; stroke-linejoin: miter; stroke-miterlimit: 4; fill: rgb(0,0,0); fill-rule: nonzero; opacity: 1; white-space: pre;" ><tspan x="-73.7" y="12.57" >CHARM</tspan></text>
</g>
<g transform="matrix(0.33 0 0 0.33 45 46)"  >
<g style="" vector-effect="non-scaling-stroke"   >
		<g transform="matrix(1 0 0 1 -14.31 14.48)"  >
<path style="stroke: none; stroke-width: 1; stroke-dasharray: none; stroke-linecap: butt; stroke-dashoffset: 0; stroke-linejoin: miter; stroke-miterlimit: 4; fill: rgb(101,101,101); fill-rule: nonzero; opacity: 1;" vector-effect="non-scaling-stroke"  transform=" translate(-35.69, -64.48)" d="M 42.531 43.218 L 17.319 68.373 C 13.363999999999999 72.328 13.363999999999999 78.809 17.319 82.76400000000001 C 20.615 86.06000000000002 25.612 86.60900000000001 29.458 84.46700000000001 L 29.458 77.87400000000001 L 34.455 77.87400000000001 L 34.455 68.70200000000001 L 43.903 68.70200000000001 L 43.903 64.47300000000001 L 49.341 64.47300000000001 L 49.341 59.03500000000001 L 55.493 59.03500000000001 L 57.029 57.49900000000001 C 53.73500000000001 56.45400000000001 50.550000000000004 54.58600000000001 47.912000000000006 51.95000000000001 C 45.387 49.424 43.574 46.402 42.531 43.218 z" stroke-linecap="round" />
</g>
		<g transform="matrix(1 0 0 1 14.93 -15.05)"  >
<path style="stroke: none; stroke-width: 1; stroke-dasharray: none; stroke-linecap: butt; stroke-dashoffset: 0; stroke-linejoin: miter; stroke-miterlimit: 4; fill: rgb(101,101,101); fill-rule: nonzero; opacity: 1;" vector-effect="non-scaling-stroke"  transform=" translate(-64.93, -34.95)" d="M 79.551 20.313 C 71.475 12.241 58.349000000000004 12.241 50.274 20.313 C 42.202 28.387 42.202 41.516 50.274 49.589 C 58.349000000000004 57.663 71.475 57.663 79.551 49.589 C 87.68 41.515 87.68 28.387 79.551 20.313 z M 75.267 32.671 C 73.068 34.924 69.443 34.924 67.191 32.671 C 64.99600000000001 30.474 64.99600000000001 26.85 67.191 24.599 C 69.443 22.4 73.068 22.4 75.267 24.599 C 77.519 26.85 77.519 30.474 75.267 32.671 z" stroke-linecap="round" />
</g>
</g>
</g>
</svg>