<?xml version="1.0" encoding="UTF-8"?>
<svg xmlns="http://www.w3.org/2000/svg" xmlns:xlink="http://www.w3.org/1999/xlink" viewBox="0 0 50 50" width="50px" height="50px">
<g id="surface220154340">
<path style=" stroke:none;fill-rule:nonzero;fill:rgb(0%,0%,0%);fill-opacity:1;" d="M 25.164062 5 L 27.746094 12.269531 L 26.945312 12.550781 C 26.746094 12.621094 26.582031 12.769531 26.492188 12.960938 C 26.402344 13.152344 26.390625 13.375 26.460938 13.574219 L 27.40625 16.242188 C 25.984375 17.15625 24.796875 18.402344 23.960938 19.875 L 23.34375 18.308594 C 23.242188 18.046875 23.007812 17.855469 22.730469 17.8125 L 18.25 17.0625 L 16.039062 14.121094 C 15.878906 13.898438 15.617188 13.777344 15.347656 13.792969 C 15.050781 13.808594 14.789062 13.988281 14.664062 14.257812 C 14.542969 14.527344 14.578125 14.84375 14.757812 15.078125 L 17.160156 18.28125 C 17.28125 18.445312 17.464844 18.554688 17.667969 18.589844 L 22.019531 19.3125 L 23.054688 21.953125 C 22.757812 22.917969 22.597656 23.941406 22.597656 25 C 22.597656 25.136719 22.613281 25.265625 22.617188 25.402344 L 19.300781 28.054688 L 14.957031 25.882812 C 14.679688 25.746094 14.34375 25.78125 14.101562 25.976562 L 10.101562 29.175781 C 9.875 29.355469 9.765625 29.636719 9.808594 29.921875 C 9.851562 30.203125 10.042969 30.441406 10.308594 30.546875 C 10.574219 30.648438 10.875 30.605469 11.101562 30.425781 L 14.699219 27.542969 L 19.042969 29.714844 C 19.320312 29.855469 19.65625 29.820312 19.898438 29.625 L 22.851562 27.265625 C 23.464844 30.015625 25.171875 32.351562 27.488281 33.804688 L 23.867188 35.472656 C 23.582031 35.605469 23.398438 35.886719 23.398438 36.199219 L 23.398438 38.199219 L 20.734375 40.199219 L 8.199219 40.199219 L 8.199219 9.800781 L 25.171875 9.800781 L 24.601562 8.199219 L 7.398438 8.199219 C 6.957031 8.199219 6.601562 8.558594 6.601562 9 L 6.601562 41 C 6.601562 41.441406 6.957031 41.800781 7.398438 41.800781 L 38.828125 41.800781 C 38.953125 41.832031 39.085938 41.832031 39.210938 41.800781 L 41 41.800781 C 41.441406 41.800781 41.800781 41.441406 41.800781 41 L 41.800781 33.136719 C 41.3125 33.664062 40.777344 34.148438 40.199219 34.582031 L 40.199219 40.199219 L 39.363281 40.199219 L 36.929688 37.417969 L 36.289062 34.855469 C 40.414062 33.476562 43.398438 29.582031 43.398438 25 C 43.398438 19.265625 38.730469 14.601562 32.996094 14.601562 C 32.675781 14.601562 32.359375 14.617188 32.046875 14.648438 L 31.082031 11.933594 C 30.972656 11.621094 30.683594 11.410156 30.351562 11.398438 C 30.253906 11.398438 30.15625 11.414062 30.0625 11.445312 L 29.253906 11.734375 L 26.863281 5 Z M 29.695312 8.199219 L 30.265625 9.800781 L 40.199219 9.800781 L 40.199219 15.417969 C 40.777344 15.851562 41.3125 16.335938 41.800781 16.863281 L 41.800781 9 C 41.800781 8.519531 41.480469 8.199219 41 8.199219 Z M 29.84375 13.222656 L 30.449219 14.929688 C 29.890625 15.070312 29.351562 15.25 28.835938 15.476562 L 28.234375 13.792969 Z M 32.996094 16.199219 C 37.867188 16.199219 41.796875 20.128906 41.796875 25 C 41.796875 29.121094 38.976562 32.5625 35.15625 33.523438 C 35.136719 33.527344 35.121094 33.53125 35.101562 33.539062 C 34.425781 33.703125 33.722656 33.800781 32.996094 33.800781 C 31.828125 33.800781 30.714844 33.566406 29.695312 33.15625 C 29.636719 33.121094 29.570312 33.09375 29.5 33.078125 C 26.378906 31.730469 24.195312 28.625 24.195312 25 C 24.195312 20.128906 28.128906 16.199219 32.996094 16.199219 Z M 30.617188 19.132812 C 30.492188 19.132812 30.367188 19.160156 30.253906 19.21875 C 28.089844 20.246094 26.597656 22.453125 26.597656 25 C 26.59375 25.289062 26.746094 25.558594 26.992188 25.703125 C 27.242188 25.847656 27.550781 25.847656 27.800781 25.703125 C 28.050781 25.558594 28.199219 25.289062 28.195312 25 C 28.195312 23.078125 29.320312 21.433594 30.941406 20.664062 C 31.28125 20.507812 31.46875 20.136719 31.390625 19.769531 C 31.3125 19.402344 30.992188 19.136719 30.617188 19.132812 Z M 29.332031 34.71875 C 30.472656 35.152344 31.707031 35.398438 32.996094 35.398438 C 33.589844 35.398438 34.167969 35.339844 34.734375 35.242188 L 35.421875 37.992188 C 35.453125 38.117188 35.515625 38.230469 35.597656 38.328125 L 37.238281 40.199219 L 23.398438 40.199219 L 24.679688 39.242188 C 24.882812 39.089844 25 38.851562 25 38.601562 L 25 36.710938 Z M 29.332031 34.71875 "/>
</g>
</svg>
