<?xml version="1.0" encoding="UTF-8"?>
<svg xmlns="http://www.w3.org/2000/svg" xmlns:xlink="http://www.w3.org/1999/xlink" viewBox="0 0 48 48" width="48px" height="48px">
<g id="surface204554483">
<path style=" stroke:none;fill-rule:nonzero;fill:rgb(92.54902%,94.117647%,94.509804%);fill-opacity:1;" d="M 39 7 L 39 41 C 39 42.105469 38.105469 43 37 43 L 11 43 C 9.894531 43 9 42.105469 9 41 L 9 7 C 9 5.894531 9.894531 5 11 5 L 37 5 C 38.105469 5 39 5.894531 39 7 Z M 39 7 "/>
<path style=" stroke:none;fill-rule:nonzero;fill:rgb(1.960784%,43.921569%,57.647061%);fill-opacity:1;" d="M 19 13 C 19 14.105469 18.105469 15 17 15 C 15.894531 15 15 14.105469 15 13 C 15 11.894531 15.894531 11 17 11 C 18.105469 11 19 11.894531 19 13 Z M 19 13 "/>
<path style=" stroke:none;fill-rule:nonzero;fill:rgb(1.960784%,43.921569%,57.647061%);fill-opacity:1;" d="M 17 16 C 15.34375 16 14 17.34375 14 19 L 14 20.398438 C 14 20.730469 14.269531 21 14.601562 21 L 19.398438 21 C 19.730469 21 20 20.730469 20 20.398438 L 20 19 C 20 17.34375 18.65625 16 17 16 Z M 17 16 "/>
<path style=" stroke:none;fill-rule:nonzero;fill:rgb(1.960784%,43.921569%,57.647061%);fill-opacity:1;" d="M 33 28 L 15 28 C 14.449219 28 14 28.449219 14 29 C 14 29.550781 14.449219 30 15 30 L 33 30 C 33.550781 30 34 29.550781 34 29 C 34 28.449219 33.550781 28 33 28 Z M 33 28 "/>
<path style=" stroke:none;fill-rule:nonzero;fill:rgb(1.960784%,43.921569%,57.647061%);fill-opacity:1;" d="M 33 24 L 15 24 C 14.449219 24 14 24.449219 14 25 C 14 25.550781 14.449219 26 15 26 L 33 26 C 33.550781 26 34 25.550781 34 25 C 34 24.449219 33.550781 24 33 24 Z M 33 24 "/>
<path style=" stroke:none;fill-rule:nonzero;fill:rgb(1.960784%,43.921569%,57.647061%);fill-opacity:1;" d="M 29 36 L 15 36 C 14.449219 36 14 36.449219 14 37 C 14 37.550781 14.449219 38 15 38 L 29 38 C 29.550781 38 30 37.550781 30 37 C 30 36.449219 29.550781 36 29 36 Z M 29 36 "/>
<path style=" stroke:none;fill-rule:nonzero;fill:rgb(1.960784%,43.921569%,57.647061%);fill-opacity:1;" d="M 33 32 L 15 32 C 14.449219 32 14 32.449219 14 33 C 14 33.550781 14.449219 34 15 34 L 33 34 C 33.550781 34 34 33.550781 34 33 C 34 32.449219 33.550781 32 33 32 Z M 33 32 "/>
<path style=" stroke:none;fill-rule:nonzero;fill:rgb(1.960784%,43.921569%,57.647061%);fill-opacity:1;" d="M 33 16 L 25 16 C 24.449219 16 24 16.449219 24 17 C 24 17.550781 24.449219 18 25 18 L 33 18 C 33.550781 18 34 17.550781 34 17 C 34 16.449219 33.550781 16 33 16 Z M 33 16 "/>
<path style=" stroke:none;fill-rule:nonzero;fill:rgb(1.960784%,43.921569%,57.647061%);fill-opacity:1;" d="M 33 12 L 25 12 C 24.449219 12 24 12.449219 24 13 C 24 13.550781 24.449219 14 25 14 L 33 14 C 33.550781 14 34 13.550781 34 13 C 34 12.449219 33.550781 12 33 12 Z M 33 12 "/>
<path style=" stroke:none;fill-rule:nonzero;fill:rgb(40.000001%,40.000001%,40.000001%);fill-opacity:1;" d="M 44.394531 39 L 41 39 L 41 33 C 41 32.449219 40.550781 32 40 32 L 38 32 C 37.449219 32 37 32.449219 37 33 L 37 39 L 33.605469 39 C 33.066406 39 32.796875 39.652344 33.179688 40.035156 L 38.144531 44.996094 C 38.617188 45.472656 39.382812 45.472656 39.855469 44.996094 L 44.820312 40.035156 C 45.203125 39.652344 44.933594 39 44.394531 39 Z M 44.394531 39 "/>
<path style=" stroke:none;fill-rule:nonzero;fill:rgb(40.000001%,40.000001%,40.000001%);fill-opacity:1;" d="M 10.179688 7.449219 L 12.144531 7.449219 C 12.070312 8.472656 11.691406 9.28125 11.007812 9.867188 C 10.324219 10.457031 9.425781 10.753906 8.308594 10.753906 C 7.089844 10.753906 6.128906 10.339844 5.429688 9.519531 C 4.730469 8.695312 4.378906 7.570312 4.378906 6.132812 L 4.378906 5.554688 C 4.378906 4.636719 4.539062 3.828125 4.863281 3.132812 C 5.183594 2.433594 5.644531 1.898438 6.246094 1.527344 C 6.847656 1.15625 7.542969 0.96875 8.335938 0.96875 C 9.433594 0.96875 10.320312 1.261719 10.992188 1.851562 C 11.664062 2.4375 12.050781 3.265625 12.15625 4.328125 L 10.191406 4.328125 C 10.144531 3.714844 9.972656 3.269531 9.679688 2.992188 C 9.386719 2.714844 8.9375 2.574219 8.335938 2.574219 C 7.683594 2.574219 7.191406 2.808594 6.867188 3.277344 C 6.542969 3.746094 6.375 4.476562 6.367188 5.460938 L 6.367188 6.179688 C 6.367188 7.210938 6.523438 7.960938 6.835938 8.4375 C 7.148438 8.914062 7.636719 9.152344 8.308594 9.152344 C 8.914062 9.152344 9.367188 9.011719 9.664062 8.734375 C 9.964844 8.457031 10.136719 8.027344 10.179688 7.449219 Z M 14.804688 1.097656 L 16.949219 8.261719 L 19.109375 1.097656 L 21.292969 1.097656 L 17.976562 10.621094 L 15.929688 10.621094 L 12.625 1.097656 Z M 14.804688 1.097656 "/>
</g>
</svg>
