<?xml version="1.0" encoding="UTF-8"?>
<svg xmlns="http://www.w3.org/2000/svg" xmlns:xlink="http://www.w3.org/1999/xlink" viewBox="0 0 50 50" width="50px" height="50px">
<g id="surface207798533">
<path style=" stroke:none;fill-rule:nonzero;fill:rgb(80.000001%,80.000001%,80.000001%);fill-opacity:1;" d="M 25 50 C 11.191406 50 0 38.808594 0 25 C 0 11.191406 11.191406 0 25 0 C 38.808594 0 50 11.191406 50 25 C 50 38.808594 38.808594 50 25 50 Z M 25 50 "/>
<path style=" stroke:none;fill-rule:nonzero;fill:rgb(0%,0%,0%);fill-opacity:1;" d="M 20.78125 9.992188 C 18.46875 9.992188 16.585938 11.898438 16.585938 14.246094 L 16.585938 15.820312 C 16.550781 15.867188 16.511719 15.910156 16.492188 15.96875 L 10.007812 35.265625 C 9.914062 35.652344 9.984375 36.070312 10.214844 36.410156 C 10.441406 36.746094 10.785156 36.976562 11.132812 37.027344 C 12.898438 37.359375 13.996094 38.550781 14.488281 39.238281 C 14.617188 39.421875 14.773438 39.558594 14.957031 39.667969 L 17.617188 28.859375 C 17.695312 28.539062 18.027344 28.328125 18.347656 28.410156 C 18.667969 28.488281 18.855469 28.820312 18.777344 29.140625 L 16.136719 39.894531 C 16.265625 39.871094 16.398438 39.847656 16.527344 39.800781 C 17.242188 39.492188 18.542969 39.125 20.667969 39.125 C 22.671875 39.125 23.945312 39.503906 24.828125 39.820312 C 25.007812 39.886719 25.199219 39.90625 25.390625 39.914062 L 22.769531 29.140625 C 22.691406 28.820312 22.898438 28.488281 23.21875 28.410156 C 23.535156 28.328125 23.871094 28.535156 23.949219 28.859375 L 26.535156 39.558594 C 26.652344 39.464844 26.769531 39.359375 26.851562 39.238281 C 27.730469 38.011719 28.84375 37.265625 30.128906 37.027344 C 30.609375 36.980469 31.035156 36.75 31.292969 36.390625 C 31.523438 36.0625 31.589844 35.660156 31.480469 35.230469 L 25.015625 16.042969 C 25.007812 16.027344 24.984375 16.003906 24.976562 15.988281 L 24.976562 14.246094 C 24.976562 11.898438 23.09375 9.992188 20.78125 9.992188 Z M 29.175781 9.992188 C 27.917969 9.992188 26.726562 10.558594 25.953125 11.546875 C 25.785156 11.710938 25.726562 11.957031 25.804688 12.179688 C 25.882812 12.398438 26.082031 12.554688 26.316406 12.574219 C 26.546875 12.597656 26.773438 12.480469 26.890625 12.277344 C 27.433594 11.589844 28.273438 11.191406 29.175781 11.191406 C 29.195312 11.191406 29.210938 11.191406 29.230469 11.191406 C 30.855469 11.222656 32.171875 12.582031 32.171875 14.246094 L 32.171875 19.097656 C 32.171875 20.945312 30.691406 23.425781 29.175781 23.425781 C 29.03125 23.425781 28.890625 23.394531 28.742188 23.351562 L 32.304688 33.917969 L 31.160156 29.140625 C 31.082031 28.820312 31.289062 28.488281 31.609375 28.410156 C 31.929688 28.335938 32.265625 28.539062 32.339844 28.859375 L 34.890625 39.574219 C 35.023438 39.476562 35.152344 39.375 35.246094 39.238281 C 36.125 38.011719 37.234375 37.265625 38.523438 37.027344 C 39 36.980469 39.429688 36.75 39.683594 36.390625 C 39.914062 36.066406 39.984375 35.660156 39.871094 35.230469 L 33.410156 16.042969 C 33.402344 16.027344 33.378906 16.003906 33.371094 15.988281 L 33.371094 14.246094 C 33.371094 11.9375 31.550781 10.054688 29.289062 9.992188 C 29.25 9.992188 29.210938 9.992188 29.175781 9.992188 Z M 20.78125 11.191406 C 22.433594 11.191406 23.78125 12.558594 23.78125 14.246094 L 23.78125 19.097656 C 23.78125 20.945312 22.296875 23.425781 20.78125 23.425781 C 19.265625 23.425781 17.785156 20.945312 17.785156 19.097656 L 17.785156 14.246094 C 17.785156 12.558594 19.128906 11.191406 20.78125 11.191406 Z M 32.714844 35.640625 C 32.707031 36.152344 32.566406 36.65625 32.265625 37.082031 C 31.820312 37.714844 31.117188 38.113281 30.316406 38.207031 C 29.59375 38.347656 28.933594 38.710938 28.371094 39.277344 C 28.835938 39.230469 29.371094 39.199219 29.960938 39.199219 C 29.972656 39.199219 29.96875 39.199219 29.980469 39.199219 C 31.546875 39.265625 32.648438 39.628906 33.222656 39.820312 C 33.386719 39.882812 33.554688 39.902344 33.726562 39.914062 Z M 32.714844 35.640625 "/>
</g>
</svg>
