<?xml version="1.0" encoding="UTF-8"?>
<svg xmlns="http://www.w3.org/2000/svg" xmlns:xlink="http://www.w3.org/1999/xlink" width="256pt" height="256pt" viewBox="0 0 256 256" version="1.1">
<g id="surface1">
<path style=" stroke:none;fill-rule:nonzero;fill:rgb(22.352941%,22.764706%,27.647059%);fill-opacity:1;" d="M 100.503906 71.691406 C 74.496094 66.953125 53.933594 71.910156 45.738281 86.105469 C 39.625 96.695312 41.371094 110.738281 49.980469 125.75 C 50.441406 126.601562 51.328125 127.132812 52.292969 127.140625 C 53.261719 127.152344 54.15625 126.636719 54.636719 125.796875 C 55.117188 124.957031 55.105469 123.925781 54.605469 123.097656 C 46.855469 109.574219 45.34375 97.457031 50.359375 88.773438 C 57.167969 76.980469 75.507812 72.558594 99.546875 76.9375 C 100.984375 77.175781 102.347656 76.21875 102.609375 74.785156 C 102.867188 73.351562 101.929688 71.972656 100.503906 71.691406 Z M 63.503906 143.996094 C 74.019531 155.550781 87.679688 166.390625 103.257812 175.386719 C 140.980469 197.164062 181.140625 202.984375 200.933594 189.492188 C 201.738281 188.960938 202.195312 188.039062 202.128906 187.078125 C 202.0625 186.117188 201.484375 185.265625 200.613281 184.851562 C 199.742188 184.4375 198.714844 184.527344 197.929688 185.085938 C 180.214844 197.164062 142.066406 191.632812 105.925781 170.765625 C 90.8125 162.039062 77.582031 151.546875 67.449219 140.40625 C 66.808594 139.699219 65.835938 139.386719 64.902344 139.585938 C 63.96875 139.789062 63.214844 140.476562 62.925781 141.386719 C 62.636719 142.296875 62.855469 143.292969 63.503906 143.996094 Z M 63.503906 143.996094 "/>
<path style=" stroke:none;fill-rule:nonzero;fill:rgb(22.352941%,22.764706%,27.647059%);fill-opacity:1;" d="M 194.621094 140.753906 C 211.648438 120.636719 217.59375 100.40625 209.414062 86.242188 C 203.398438 75.816406 190.675781 70.316406 173.769531 70.09375 C 172.3125 70.097656 171.125 71.269531 171.105469 72.726562 C 171.089844 74.183594 172.242188 75.386719 173.699219 75.429688 C 188.90625 75.625 199.867188 80.367188 204.796875 88.90625 C 211.589844 100.671875 206.285156 118.714844 190.550781 137.308594 C 189.921875 138.03125 189.730469 139.039062 190.050781 139.945312 C 190.371094 140.847656 191.15625 141.511719 192.101562 141.679688 C 193.046875 141.847656 194.007812 141.492188 194.621094 140.753906 Z M 150.859375 72.578125 C 135.464844 75.878906 119.074219 82.328125 103.335938 91.414062 C 64.394531 113.894531 38.992188 147.050781 42.519531 171.089844 C 42.648438 172.039062 43.277344 172.847656 44.167969 173.207031 C 45.0625 173.566406 46.074219 173.417969 46.828125 172.816406 C 47.578125 172.21875 47.949219 171.261719 47.796875 170.3125 C 44.664062 148.96875 68.742188 117.542969 106.003906 96.03125 C 121.269531 87.21875 137.140625 80.972656 151.976562 77.792969 C 152.921875 77.605469 153.691406 76.925781 153.992188 76.011719 C 154.292969 75.09375 154.078125 74.089844 153.429688 73.378906 C 152.78125 72.667969 151.796875 72.359375 150.859375 72.578125 Z M 150.859375 72.578125 "/>
<path style=" stroke:none;fill-rule:nonzero;fill:rgb(22.352941%,22.764706%,27.647059%);fill-opacity:1;" d="M 87.769531 187.753906 C 96.675781 212.613281 111.238281 227.921875 127.617188 227.921875 C 139.5625 227.921875 150.613281 219.777344 159.230469 205.441406 C 159.738281 204.625 159.765625 203.597656 159.304688 202.753906 C 158.84375 201.910156 157.960938 201.378906 157 201.367188 C 156.039062 201.355469 155.144531 201.863281 154.660156 202.695312 C 146.914062 215.578125 137.402344 222.585938 127.617188 222.585938 C 114.011719 222.585938 101.019531 208.933594 92.792969 185.957031 C 92.484375 185.039062 91.707031 184.363281 90.757812 184.183594 C 89.808594 184.003906 88.835938 184.351562 88.21875 185.089844 C 87.597656 185.832031 87.425781 186.851562 87.769531 187.753906 Z M 169.09375 182.890625 C 173.703125 168.160156 176.175781 151.171875 176.175781 133.46875 C 176.175781 89.289062 160.714844 51.203125 138.691406 41.425781 C 137.351562 40.863281 135.8125 41.476562 135.222656 42.800781 C 134.632812 44.128906 135.210938 45.683594 136.527344 46.300781 C 156.167969 55.023438 170.84375 91.164062 170.84375 133.46875 C 170.84375 150.644531 168.445312 167.097656 164.003906 181.296875 C 163.703125 182.210938 163.917969 183.214844 164.566406 183.925781 C 165.214844 184.636719 166.195312 184.945312 167.132812 184.730469 C 168.070312 184.515625 168.820312 183.8125 169.09375 182.890625 Z M 219.316406 180.277344 C 219.316406 173.230469 213.601562 167.515625 206.554688 167.515625 C 199.503906 167.515625 193.789062 173.230469 193.789062 180.277344 C 193.789062 187.328125 199.503906 193.039062 206.554688 193.039062 C 213.601562 193.039062 219.316406 187.328125 219.316406 180.277344 Z M 213.984375 180.277344 C 213.984375 184.382812 210.65625 187.707031 206.554688 187.707031 C 202.449219 187.707031 199.121094 184.382812 199.121094 180.277344 C 199.121094 176.175781 202.449219 172.847656 206.554688 172.847656 C 210.65625 172.847656 213.984375 176.175781 213.984375 180.277344 Z M 48.496094 193.039062 C 55.546875 193.039062 61.261719 187.328125 61.261719 180.277344 C 61.261719 173.230469 55.546875 167.515625 48.496094 167.515625 C 41.449219 167.515625 35.734375 173.230469 35.734375 180.277344 C 35.734375 187.328125 41.449219 193.039062 48.496094 193.039062 Z M 48.496094 187.707031 C 44.394531 187.707031 41.066406 184.382812 41.066406 180.277344 C 41.066406 176.175781 44.394531 172.847656 48.496094 172.847656 C 52.601562 172.847656 55.925781 176.175781 55.925781 180.277344 C 55.925781 184.382812 52.601562 187.707031 48.496094 187.707031 Z M 48.496094 187.707031 "/>
<path style=" stroke:none;fill-rule:nonzero;fill:rgb(22.352941%,22.764706%,27.647059%);fill-opacity:1;" d="M 127.617188 54.445312 C 134.664062 54.445312 140.378906 48.730469 140.378906 41.679688 C 140.378906 34.632812 134.664062 28.917969 127.617188 28.917969 C 120.566406 28.917969 114.855469 34.632812 114.855469 41.679688 C 114.855469 48.730469 120.566406 54.445312 127.617188 54.445312 Z M 127.617188 49.109375 C 123.511719 49.109375 120.1875 45.785156 120.1875 41.679688 C 120.1875 37.578125 123.511719 34.25 127.617188 34.25 C 131.71875 34.25 135.046875 37.578125 135.046875 41.679688 C 135.046875 45.785156 131.71875 49.109375 127.617188 49.109375 Z M 129.566406 142.492188 C 124.582031 143.570312 119.671875 140.402344 118.589844 135.417969 C 117.515625 130.433594 120.683594 125.519531 125.667969 124.441406 C 130.652344 123.363281 135.5625 126.53125 136.644531 131.515625 C 137.71875 136.503906 134.550781 141.414062 129.566406 142.492188 Z M 129.566406 142.492188 "/>
</g>
</svg>
