<?xml version="1.0" encoding="UTF-8"?>
<svg xmlns="http://www.w3.org/2000/svg" xmlns:xlink="http://www.w3.org/1999/xlink" viewBox="0 0 50 50" width="50px" height="50px">
<g id="surface207796183">
<path style=" stroke:none;fill-rule:nonzero;fill:rgb(80.000001%,80.000001%,80.000001%);fill-opacity:1;" d="M 25 50 C 11.191406 50 0 38.808594 0 25 C 0 11.191406 11.191406 0 25 0 C 38.808594 0 50 11.191406 50 25 C 50 38.808594 38.808594 50 25 50 Z M 25 50 "/>
<path style=" stroke:none;fill-rule:nonzero;fill:rgb(0%,0%,0%);fill-opacity:1;" d="M 28.398438 10.011719 C 28.082031 10.070312 27.867188 10.371094 27.910156 10.6875 C 27.976562 11.164062 27.832031 11.640625 27.535156 12.203125 C 27.242188 12.769531 26.789062 13.410156 26.335938 14.117188 C 25.429688 15.53125 24.503906 17.335938 24.933594 19.734375 C 25.320312 21.910156 26.894531 22.933594 28.378906 23.125 C 29.121094 23.21875 29.839844 23.125 30.457031 22.957031 C 30.496094 22.945312 30.53125 22.933594 30.570312 22.917969 C 30.402344 23.703125 30.167969 24.550781 29.875 25.464844 C 29.769531 25.464844 29.660156 25.464844 29.558594 25.464844 C 29.085938 25.46875 28.652344 25.644531 28.246094 25.914062 C 28.039062 26.054688 27.914062 26.300781 27.742188 26.496094 C 27.328125 26.242188 26.839844 26.09375 26.316406 26.121094 C 25.675781 26.152344 25.042969 26.53125 24.613281 27.152344 C 23.992188 27.070312 23.386719 27.132812 22.910156 27.433594 C 22.609375 27.621094 22.359375 27.882812 22.199219 28.199219 C 21.4375 27.523438 20.234375 26.796875 18.058594 26.796875 C 16.359375 26.796875 15.574219 27.207031 14.722656 27.542969 C 13.101562 28.1875 10.324219 29.53125 10.324219 29.53125 C 10.101562 29.605469 9.949219 29.800781 9.921875 30.03125 C 9.898438 30.261719 10.007812 30.488281 10.207031 30.609375 C 10.402344 30.730469 10.652344 30.722656 10.847656 30.597656 C 10.847656 30.597656 13.648438 29.253906 15.175781 28.648438 C 16.109375 28.28125 16.53125 27.992188 18.058594 27.992188 C 21.425781 27.992188 21.324219 29.507812 22.703125 30.335938 C 23.25 30.664062 24.128906 30.917969 25.121094 31.160156 C 26.109375 31.402344 27.160156 31.589844 27.964844 31.589844 C 28.667969 31.589844 29.164062 31.722656 29.425781 31.890625 C 29.6875 32.054688 29.765625 32.191406 29.765625 32.488281 C 29.765625 32.839844 29.6875 32.949219 29.425781 33.105469 C 29.164062 33.265625 28.65625 33.386719 27.964844 33.386719 L 24.484375 33.386719 C 23.015625 33.386719 20.941406 32.808594 20.941406 32.808594 C 20.621094 32.714844 20.285156 32.898438 20.195312 33.21875 C 20.101562 33.539062 20.285156 33.875 20.605469 33.96875 C 20.605469 33.96875 22.71875 34.585938 24.484375 34.585938 L 27.964844 34.585938 C 28.777344 34.585938 29.464844 34.46875 30.027344 34.136719 C 30.1875 34.042969 30.332031 33.921875 30.457031 33.78125 C 30.511719 33.761719 30.558594 33.738281 30.605469 33.707031 L 36 30.074219 C 36.933594 29.519531 37.582031 29.371094 37.96875 29.378906 C 38.351562 29.386719 38.484375 29.5 38.605469 29.660156 C 38.78125 29.894531 38.792969 30.023438 38.679688 30.296875 C 38.566406 30.570312 38.246094 30.957031 37.667969 31.367188 C 36.949219 31.875 29.027344 37.140625 28.097656 37.675781 C 27.410156 38.074219 26.859375 38.507812 26.222656 38.6875 C 25.589844 38.867188 24.832031 38.855469 23.601562 38.257812 C 22.78125 37.859375 19.3125 36.046875 18.1875 35.46875 C 17.570312 35.144531 17.058594 34.96875 16.523438 35 C 15.984375 35.03125 15.519531 35.273438 15.042969 35.578125 L 13.433594 36.628906 C 13.152344 36.808594 13.074219 37.183594 13.253906 37.460938 C 13.433594 37.742188 13.808594 37.820312 14.085938 37.640625 L 15.699219 36.589844 C 16.117188 36.324219 16.355469 36.210938 16.578125 36.199219 C 16.804688 36.1875 17.109375 36.257812 17.644531 36.535156 C 18.761719 37.109375 22.175781 38.90625 23.078125 39.34375 C 24.496094 40.03125 25.628906 40.089844 26.542969 39.832031 C 27.457031 39.570312 28.109375 39.050781 28.695312 38.707031 C 29.945312 37.984375 37.460938 32.976562 38.359375 32.339844 C 39.050781 31.851562 39.535156 31.34375 39.785156 30.746094 C 40.035156 30.152344 39.957031 29.449219 39.558594 28.929688 C 39.246094 28.519531 38.695312 28.195312 37.988281 28.179688 C 37.460938 28.171875 36.855469 28.304688 36.152344 28.628906 C 36 28.042969 35.65625 27.476562 35.101562 27.078125 C 34.457031 26.613281 33.503906 26.523438 32.480469 26.832031 C 32.160156 26.328125 31.761719 25.917969 31.300781 25.726562 C 31.21875 25.695312 31.136719 25.679688 31.054688 25.652344 C 31.394531 24.570312 31.652344 23.574219 31.824219 22.636719 C 32.101562 22.757812 32.425781 22.851562 32.796875 22.863281 C 33.523438 22.882812 34.371094 22.589844 35.175781 21.832031 C 37.261719 19.878906 37.511719 13.996094 28.734375 10.070312 C 28.648438 10.027344 28.550781 10.007812 28.453125 10.011719 C 28.433594 10.011719 28.414062 10.011719 28.398438 10.011719 Z M 29.015625 11.566406 C 36.457031 15.257812 35.484375 19.90625 34.351562 20.96875 C 33.722656 21.558594 33.234375 21.675781 32.835938 21.664062 C 32.515625 21.652344 32.242188 21.523438 32.011719 21.382812 C 32.332031 18.601562 31.902344 16.34375 30.945312 13.945312 C 30.851562 13.6875 30.597656 13.527344 30.324219 13.554688 C 30.136719 13.570312 29.964844 13.675781 29.863281 13.835938 C 29.765625 14 29.746094 14.199219 29.820312 14.378906 C 30.761719 16.734375 31.175781 18.808594 30.8125 21.511719 C 30.652344 21.613281 30.4375 21.730469 30.140625 21.8125 C 29.667969 21.941406 29.085938 21.996094 28.527344 21.925781 C 27.410156 21.78125 26.421875 21.257812 26.113281 19.527344 C 25.753906 17.519531 26.480469 16.097656 27.347656 14.753906 C 27.78125 14.078125 28.25 13.445312 28.601562 12.765625 C 28.800781 12.390625 28.929688 11.988281 29.015625 11.566406 Z M 29.558594 26.664062 C 29.671875 26.664062 29.78125 26.675781 29.894531 26.683594 C 30.066406 26.8125 30.296875 26.84375 30.496094 26.757812 C 30.613281 26.785156 30.726562 26.808594 30.832031 26.851562 C 31.1875 27 31.464844 27.210938 31.65625 27.714844 C 31.714844 27.867188 31.839844 27.984375 31.992188 28.042969 C 32.144531 28.105469 32.3125 28.097656 32.460938 28.03125 C 33.40625 27.597656 33.976562 27.753906 34.390625 28.050781 C 34.800781 28.34375 35.046875 28.871094 35.046875 29.269531 L 30.90625 32.058594 C 30.792969 31.570312 30.492188 31.148438 30.0625 30.878906 C 29.515625 30.53125 28.808594 30.390625 27.964844 30.390625 C 27.359375 30.390625 26.332031 30.226562 25.398438 30 C 24.46875 29.769531 23.566406 29.453125 23.320312 29.304688 C 23.277344 29.28125 23.222656 29.222656 23.171875 29.175781 C 23.175781 28.8125 23.300781 28.597656 23.546875 28.445312 C 23.792969 28.289062 24.203125 28.226562 24.707031 28.351562 C 25.011719 28.425781 25.320312 28.253906 25.417969 27.957031 C 25.582031 27.488281 25.9375 27.34375 26.394531 27.320312 C 26.847656 27.296875 27.289062 27.566406 27.3125 27.601562 C 27.429688 27.785156 27.636719 27.890625 27.855469 27.875 C 28.078125 27.859375 28.269531 27.726562 28.359375 27.527344 C 28.441406 27.332031 28.667969 27.078125 28.921875 26.90625 C 29.175781 26.738281 29.457031 26.664062 29.558594 26.664062 Z M 29.558594 26.664062 "/>
</g>
</svg>
