<?xml version="1.0" encoding="UTF-8"?>
<svg xmlns="http://www.w3.org/2000/svg" xmlns:xlink="http://www.w3.org/1999/xlink" viewBox="0 0 50 50" width="50px" height="50px">
<g id="surface207814450">
<path style=" stroke:none;fill-rule:nonzero;fill:rgb(80.000001%,80.000001%,80.000001%);fill-opacity:1;" d="M 25 50 C 11.191406 50 0 38.808594 0 25 C 0 11.191406 11.191406 0 25 0 C 38.808594 0 50 11.191406 50 25 C 50 38.808594 38.808594 50 25 50 Z M 25 50 "/>
<path style=" stroke:none;fill-rule:nonzero;fill:rgb(0%,0%,0%);fill-opacity:1;" d="M 24.890625 10 C 22.863281 10.0625 21.25 11.722656 21.25 13.75 L 21.25 14.6875 C 20.472656 14.6875 19.84375 15.316406 19.84375 16.09375 C 19.84375 16.871094 20.472656 17.5 21.25 17.5 C 21.253906 19.027344 22.179688 20.398438 23.59375 20.972656 L 23.59375 21.71875 C 23.59375 21.976562 23.382812 22.1875 23.125 22.1875 L 21.25 22.1875 C 18.921875 22.191406 17.035156 24.078125 17.03125 26.40625 L 17.03125 30.90625 C 17.03125 31.101562 16.90625 31.277344 16.722656 31.347656 L 12.183594 32.996094 C 12 33.066406 11.875 33.242188 11.875 33.4375 C 11.878906 34.652344 12.761719 35.683594 13.960938 35.871094 C 13.59375 36.804688 13.710938 37.859375 14.277344 38.683594 C 14.84375 39.511719 15.78125 40.003906 16.785156 40 L 33.214844 40 C 34.890625 40 36.25 38.640625 36.25 36.964844 C 36.25 36.707031 36.039062 36.496094 35.78125 36.496094 C 35.523438 36.496094 35.3125 36.707031 35.3125 36.964844 C 35.308594 37.714844 34.90625 38.40625 34.25 38.777344 C 34.332031 38.570312 34.375 38.347656 34.375 38.125 C 34.375 37.089844 33.535156 36.25 32.5 36.25 L 30.195312 36.25 L 27.695312 35.808594 L 32.5625 34.949219 L 34.847656 35.753906 C 35.113281 35.847656 35.394531 35.898438 35.675781 35.898438 C 37.027344 35.890625 38.121094 34.792969 38.125 33.4375 C 38.125 33.242188 38 33.066406 37.816406 32.996094 L 33.277344 31.347656 C 33.09375 31.277344 32.96875 31.101562 32.96875 30.90625 L 32.96875 26.40625 C 32.964844 24.078125 31.078125 22.191406 28.75 22.1875 L 26.875 22.1875 C 26.617188 22.1875 26.40625 21.976562 26.40625 21.71875 L 26.40625 20.972656 C 27.820312 20.398438 28.746094 19.027344 28.75 17.5 C 29.527344 17.5 30.15625 16.871094 30.15625 16.09375 C 30.15625 15.316406 29.527344 14.6875 28.75 14.6875 L 28.75 13.75 C 28.75 12.738281 28.339844 11.765625 27.613281 11.058594 C 26.886719 10.355469 25.902344 9.972656 24.890625 10 Z M 25.082031 10.9375 C 26.601562 10.984375 27.8125 12.230469 27.8125 13.75 L 27.8125 14.6875 L 27.261719 14.6875 C 27.140625 14.6875 27.019531 14.636719 26.933594 14.550781 L 26.269531 13.886719 C 26.085938 13.703125 25.789062 13.703125 25.605469 13.886719 L 24.941406 14.550781 C 24.855469 14.636719 24.734375 14.6875 24.613281 14.6875 L 22.1875 14.6875 L 22.1875 13.75 C 22.1875 12.988281 22.496094 12.261719 23.039062 11.730469 C 23.585938 11.203125 24.324219 10.917969 25.082031 10.9375 Z M 25.9375 14.882812 L 26.269531 15.214844 C 26.53125 15.476562 26.890625 15.625 27.261719 15.625 L 27.8125 15.625 L 27.8125 17.5 C 27.8125 19.054688 26.554688 20.3125 25 20.3125 C 23.445312 20.3125 22.1875 19.054688 22.1875 17.5 L 22.1875 15.625 L 24.613281 15.625 C 24.984375 15.625 25.34375 15.476562 25.605469 15.214844 Z M 21.25 15.625 L 21.25 16.5625 C 20.992188 16.5625 20.78125 16.351562 20.78125 16.09375 C 20.78125 15.835938 20.992188 15.625 21.25 15.625 Z M 28.75 15.625 C 29.007812 15.625 29.21875 15.835938 29.21875 16.09375 C 29.21875 16.351562 29.007812 16.5625 28.75 16.5625 Z M 23.125 16.09375 C 22.867188 16.09375 22.65625 16.304688 22.65625 16.5625 C 22.65625 16.820312 22.867188 17.03125 23.125 17.03125 L 23.59375 17.03125 C 23.851562 17.03125 24.0625 16.820312 24.0625 16.5625 C 24.0625 16.304688 23.851562 16.09375 23.59375 16.09375 Z M 26.40625 16.09375 C 26.148438 16.09375 25.9375 16.304688 25.9375 16.5625 C 25.9375 16.820312 26.148438 17.03125 26.40625 17.03125 L 26.875 17.03125 C 27.132812 17.03125 27.34375 16.820312 27.34375 16.5625 C 27.34375 16.304688 27.132812 16.09375 26.875 16.09375 Z M 24.53125 21.21875 C 24.84375 21.261719 25.15625 21.261719 25.46875 21.21875 L 25.46875 21.71875 C 25.46875 22.402344 25.960938 22.984375 26.632812 23.101562 C 26.304688 23.695312 25.679688 24.0625 25 24.0625 C 24.320312 24.0625 23.695312 23.695312 23.367188 23.101562 C 24.039062 22.984375 24.53125 22.402344 24.53125 21.71875 Z M 21.25 23.125 L 22.347656 23.125 C 22.746094 24.25 23.808594 25 25 25 C 26.191406 25 27.253906 24.25 27.652344 23.125 L 28.75 23.125 C 30.5625 23.128906 32.027344 24.59375 32.03125 26.40625 L 32.03125 28.75 L 30.15625 28.75 L 30.15625 28.28125 C 30.15625 28.023438 29.945312 27.8125 29.6875 27.8125 C 29.429688 27.8125 29.21875 28.023438 29.21875 28.28125 L 29.21875 34.589844 L 25 35.332031 L 20.78125 34.589844 L 20.78125 28.28125 C 20.78125 28.023438 20.570312 27.8125 20.3125 27.8125 C 20.054688 27.8125 19.84375 28.023438 19.84375 28.28125 L 19.84375 28.75 L 17.96875 28.75 L 17.96875 26.40625 C 17.972656 24.59375 19.4375 23.128906 21.25 23.125 Z M 17.96875 29.6875 L 19.84375 29.6875 L 19.84375 32.109375 C 19.84375 32.707031 19.46875 33.238281 18.90625 33.4375 L 14.839844 34.871094 C 14.425781 35.015625 13.972656 34.976562 13.589844 34.765625 C 13.207031 34.550781 12.9375 34.183594 12.84375 33.753906 L 17.042969 32.226562 C 17.597656 32.023438 17.96875 31.496094 17.96875 30.90625 Z M 30.15625 29.6875 L 32.03125 29.6875 L 32.03125 30.90625 C 32.03125 31.496094 32.402344 32.023438 32.957031 32.226562 L 37.15625 33.753906 C 37.078125 34.128906 36.859375 34.460938 36.542969 34.679688 C 36.144531 34.96875 35.625 35.039062 35.160156 34.871094 L 31.09375 33.4375 C 30.53125 33.238281 30.15625 32.707031 30.15625 32.113281 Z M 30.15625 33.984375 C 30.34375 34.125 30.550781 34.234375 30.769531 34.3125 L 30.15625 34.421875 Z M 19.84375 33.984375 L 19.84375 34.421875 L 19.230469 34.3125 C 19.449219 34.234375 19.65625 34.125 19.84375 33.984375 Z M 17.4375 34.949219 L 29.6875 37.113281 L 29.6875 39.0625 L 16.785156 39.0625 C 15.628906 39.0625 14.6875 38.121094 14.6875 36.964844 C 14.6875 36.542969 14.816406 36.128906 15.058594 35.78125 C 15.089844 35.773438 17.4375 34.949219 17.4375 34.949219 Z M 30.625 37.1875 L 32.5 37.1875 C 33.019531 37.1875 33.4375 37.605469 33.4375 38.125 C 33.4375 38.644531 33.019531 39.0625 32.5 39.0625 L 30.625 39.0625 Z M 30.625 37.1875 "/>
</g>
</svg>
