<svg xmlns="http://www.w3.org/2000/svg"  viewBox="0 0 128 128" width="128px" height="128px"><rect width="90" height="120" x="19" y="4" fill="#e4e8ed"/><path fill="#fff" d="M51.14,82.32c-0.68,0-1.36-0.23-1.93-0.7c-1.27-1.06-1.44-2.96-0.37-4.23l25.71-30.64 c1.06-1.27,2.96-1.44,4.23-0.37c1.27,1.06,1.43,2.96,0.37,4.23L53.44,81.25C52.85,81.96,52,82.32,51.14,82.32z"/><path fill="#fff" d="M54,56.92c-0.68,0-1.36-0.23-1.93-0.7c-1.27-1.06-1.44-2.96-0.37-4.23l10-11.92 c1.06-1.27,2.96-1.43,4.23-0.37c1.27,1.06,1.43,2.96,0.37,4.23l-10,11.92C55.71,56.55,54.85,56.92,54,56.92z"/><path fill="#fff" d="M59,94.96c-0.68,0-1.36-0.23-1.93-0.7c-1.27-1.06-1.44-2.96-0.37-4.23l10-11.92 c1.06-1.27,2.96-1.43,4.23-0.37c1.27,1.06,1.43,2.96,0.37,4.23l-10,11.92C60.71,94.59,59.85,94.96,59,94.96z"/><g><path fill="#444b54" d="M109,1H19c-1.66,0-3,1.34-3,3v120c0,1.66,1.34,3,3,3h90c1.66,0,3-1.34,3-3V4C112,2.34,110.66,1,109,1z M106,121H22V7h84V121z"/></g></svg>