<?xml version="1.0" encoding="UTF-8"?>
<svg xmlns="http://www.w3.org/2000/svg" xmlns:xlink="http://www.w3.org/1999/xlink" viewBox="0 0 64 64" width="64px" height="64px">
<g id="surface211761188">
<path style=" stroke:none;fill-rule:nonzero;fill:rgb(80.000001%,80.000001%,80.000001%);fill-opacity:1;" d="M 32 64 C 14.328125 64 0 49.671875 0 32 C 0 14.328125 14.328125 0 32 0 C 49.671875 0 64 14.328125 64 32 C 64 49.671875 49.671875 64 32 64 Z M 32 64 "/>
<path style=" stroke:none;fill-rule:nonzero;fill:rgb(12.156863%,12.941177%,16.862746%);fill-opacity:1;" d="M 31.488281 12.542969 C 25.324219 12.542969 22.523438 16.097656 21.878906 18.355469 C 21.414062 19.980469 22.363281 21.6875 23.988281 22.152344 C 25.597656 22.613281 27.289062 21.6875 27.769531 20.089844 C 27.773438 20.085938 27.777344 20.082031 27.78125 20.070312 C 27.796875 20.042969 27.828125 19.992188 27.871094 19.933594 C 27.964844 19.808594 28.121094 19.632812 28.378906 19.453125 C 28.898438 19.089844 29.828125 18.6875 31.488281 18.6875 C 32.773438 18.6875 33.960938 19.074219 34.796875 19.660156 C 35.628906 20.242188 36.097656 20.996094 36.097656 21.761719 C 36.097656 23.03125 35.792969 23.886719 35.261719 24.667969 C 34.730469 25.449219 33.941406 26.15625 32.992188 26.996094 C 30.800781 28.941406 27.902344 31.550781 27.902344 36.609375 L 27.902344 37.632812 C 27.902344 39.324219 29.285156 40.703125 30.976562 40.703125 C 32.667969 40.703125 34.046875 39.324219 34.046875 37.632812 L 34.046875 36.609375 C 34.046875 35.460938 34.289062 34.707031 34.773438 33.972656 C 35.257812 33.238281 36.023438 32.523438 37.070312 31.59375 C 39.296875 29.617188 42.238281 26.964844 42.238281 21.761719 C 42.238281 16.632812 37.371094 12.542969 31.488281 12.542969 Z M 31.488281 13.566406 C 36.898438 13.566406 41.214844 17.289062 41.214844 21.761719 C 41.214844 26.589844 38.617188 28.851562 36.390625 30.828125 C 35.335938 31.761719 34.503906 32.519531 33.917969 33.40625 C 33.332031 34.292969 33.023438 35.308594 33.023438 36.609375 L 33.023438 37.632812 C 33.023438 38.769531 32.113281 39.679688 30.976562 39.679688 C 29.839844 39.679688 28.929688 38.769531 28.929688 37.632812 L 28.929688 36.609375 C 28.929688 31.933594 31.480469 29.707031 33.671875 27.765625 C 34.621094 26.921875 35.476562 26.171875 36.105469 25.242188 C 36.738281 24.316406 37.121094 23.203125 37.121094 21.761719 C 37.121094 20.582031 36.414062 19.542969 35.382812 18.820312 C 34.351562 18.097656 32.976562 17.664062 31.488281 17.664062 C 29.664062 17.664062 28.5 18.117188 27.792969 18.613281 C 27.4375 18.863281 27.203125 19.117188 27.050781 19.320312 C 26.976562 19.421875 26.921875 19.511719 26.882812 19.578125 C 26.863281 19.613281 26.851562 19.640625 26.839844 19.664062 C 26.832031 19.675781 26.828125 19.6875 26.824219 19.699219 C 26.820312 19.707031 26.800781 19.769531 26.800781 19.773438 L 26.800781 19.761719 C 26.488281 20.855469 25.363281 21.480469 24.269531 21.167969 C 23.175781 20.855469 22.550781 19.730469 22.863281 18.636719 C 23.371094 16.855469 25.714844 13.566406 31.488281 13.566406 Z M 31.722656 14.601562 C 31.582031 14.605469 31.472656 14.726562 31.476562 14.867188 C 31.480469 15.007812 31.597656 15.117188 31.738281 15.113281 C 31.898438 15.117188 32.0625 15.132812 32.238281 15.148438 C 32.332031 15.160156 32.421875 15.117188 32.476562 15.039062 C 32.53125 14.964844 32.539062 14.863281 32.496094 14.777344 C 32.453125 14.695312 32.371094 14.640625 32.273438 14.636719 C 32.109375 14.625 31.933594 14.605469 31.75 14.601562 C 31.742188 14.601562 31.734375 14.601562 31.722656 14.601562 Z M 33.273438 14.761719 C 33.140625 14.761719 33.03125 14.863281 33.019531 14.996094 C 33.007812 15.128906 33.101562 15.25 33.234375 15.269531 C 33.9375 15.394531 34.605469 15.59375 35.230469 15.855469 C 35.3125 15.894531 35.414062 15.882812 35.488281 15.828125 C 35.5625 15.773438 35.601562 15.679688 35.589844 15.589844 C 35.574219 15.496094 35.515625 15.417969 35.425781 15.382812 C 34.769531 15.109375 34.066406 14.894531 33.324219 14.765625 C 33.308594 14.761719 33.292969 14.757812 33.273438 14.761719 Z M 37.371094 16.5625 C 37.261719 16.566406 37.164062 16.636719 37.132812 16.738281 C 37.097656 16.84375 37.132812 16.957031 37.21875 17.023438 C 38.742188 18.234375 39.679688 19.910156 39.679688 21.761719 C 39.679688 24.703125 38.582031 26.488281 37.167969 27.984375 C 37.105469 28.050781 37.082031 28.144531 37.109375 28.234375 C 37.136719 28.320312 37.207031 28.386719 37.296875 28.410156 C 37.382812 28.429688 37.476562 28.402344 37.542969 28.335938 C 39.003906 26.785156 40.191406 24.832031 40.191406 21.761719 C 40.191406 19.734375 39.160156 17.914062 37.535156 16.621094 C 37.488281 16.582031 37.429688 16.5625 37.371094 16.5625 Z M 30.976562 44.289062 C 29.003906 44.289062 27.390625 45.898438 27.390625 47.871094 C 27.390625 49.84375 29.003906 51.457031 30.976562 51.457031 C 32.949219 51.457031 34.558594 49.84375 34.558594 47.871094 C 34.558594 45.898438 32.949219 44.289062 30.976562 44.289062 Z M 30.976562 45.3125 C 32.394531 45.3125 33.535156 46.453125 33.535156 47.871094 C 33.535156 49.292969 32.394531 50.433594 30.976562 50.433594 C 29.554688 50.433594 28.417969 49.292969 28.417969 47.871094 C 28.417969 46.453125 29.554688 45.3125 30.976562 45.3125 Z M 30.976562 46.335938 C 30.871094 46.335938 30.769531 46.347656 30.667969 46.367188 C 30.574219 46.378906 30.496094 46.445312 30.464844 46.535156 C 30.433594 46.625 30.453125 46.722656 30.519531 46.792969 C 30.582031 46.863281 30.679688 46.890625 30.769531 46.867188 C 30.835938 46.855469 30.90625 46.847656 30.976562 46.847656 C 31.542969 46.847656 32 47.304688 32 47.871094 C 32 48.441406 31.542969 48.894531 30.976562 48.894531 C 30.746094 48.894531 30.535156 48.816406 30.363281 48.6875 C 30.289062 48.628906 30.191406 48.617188 30.105469 48.652344 C 30.019531 48.6875 29.960938 48.765625 29.949219 48.859375 C 29.941406 48.949219 29.980469 49.039062 30.054688 49.09375 C 30.308594 49.289062 30.628906 49.40625 30.976562 49.40625 C 31.820312 49.40625 32.511719 48.71875 32.511719 47.871094 C 32.511719 47.027344 31.820312 46.335938 30.976562 46.335938 Z M 29.941406 46.84375 C 29.867188 46.851562 29.796875 46.890625 29.753906 46.949219 C 29.617188 47.128906 29.523438 47.335938 29.476562 47.5625 C 29.445312 47.703125 29.535156 47.835938 29.671875 47.867188 C 29.8125 47.894531 29.945312 47.808594 29.976562 47.667969 C 30.007812 47.515625 30.070312 47.375 30.160156 47.257812 C 30.222656 47.183594 30.234375 47.078125 30.191406 46.992188 C 30.152344 46.90625 30.066406 46.847656 29.96875 46.84375 C 29.960938 46.84375 29.953125 46.84375 29.941406 46.84375 Z M 29.941406 46.84375 "/>
</g>
</svg>
