<?xml version="1.0"?><svg fill="#000000" xmlns="http://www.w3.org/2000/svg"  viewBox="0 0 100 100" width="100px" height="100px">    <path d="M 61.767578 17.007812 C 60.488378 17.067183 59.23275 17.614382 58.304688 18.632812 L 57.982422 18.986328 C 57.028724 18.277318 55.88399 17.955149 54.757812 18.009766 C 53.478719 18.071796 52.222694 18.619453 51.296875 19.640625 L 39.939453 32.164062 A 0.50005 0.50005 0 1 0 40.679688 32.835938 L 52.037109 20.3125 C 53.413056 18.79484 55.66383 18.59573 57.292969 19.746094 L 43.425781 35 L 33.984375 35 C 32.153375 35 30.398875 35.777813 29.171875 37.132812 L 12.552734 55.455078 C 10.596734 57.611078 10.540828 60.918375 12.423828 62.984375 C 13.431111 64.088677 14.851114 64.737432 16.349609 64.798828 C 15.783336 65.452421 15.329109 66.195934 15.017578 67.003906 L 11.033203 77.320312 A 0.50005 0.50005 0 0 0 11.720703 77.949219 L 21.646484 73.050781 C 22.491858 72.633988 23.251552 72.061852 23.884766 71.363281 A 0.50005 0.50005 0 0 0 23.896484 71.349609 L 24.023438 71.199219 C 24.017936 71.299946 24 71.398517 24 71.5 C 24 74.528153 26.471847 77 29.5 77 C 30.428394 77 31.303981 76.763772 32.074219 76.353516 C 32.48772 78.977958 34.762901 81 37.5 81 C 38.998211 81 40.3577 80.392226 41.351562 79.414062 C 42.132802 81.502743 44.145253 83 46.5 83 C 49.008737 83 51.125221 81.30421 51.78125 79 L 88 79 A 1.0001 1.0001 0 1 0 88 77 L 50.970703 77 L 50.458984 77 L 42.859375 74.689453 A 1.0001 1.0001 0 0 0 42.554688 74.597656 L 42.445312 74.564453 A 1.0001 1.0001 0 0 0 42.115234 74.464844 L 26.931641 69.849609 L 26.921875 69.847656 C 26.521937 69.734466 26.174132 69.572668 25.857422 69.371094 A 1.0001 1.0001 0 0 0 25.683594 69.253906 C 24.354306 68.306622 23.680616 66.596506 24.152344 64.921875 L 24.152344 64.917969 L 24.154297 64.916016 C 24.643322 63.144512 26.260367 62 28 62 C 27.92882 62 28.302914 62.013836 28.751953 62.041016 C 29.200992 62.068196 29.815181 62.107466 30.539062 62.154297 C 31.986825 62.247967 33.875793 62.373027 35.777344 62.498047 C 37.678894 62.623067 39.593677 62.747896 41.097656 62.841797 C 42.601636 62.935694 43.583333 63 44 63 C 46.7 63 49.159009 62.197096 50.984375 60.792969 C 52.809741 59.388841 54 57.333333 54 55 C 54 52.197127 51.73354 49.455837 49.789062 47.326172 A 1.0001 1.0001 0 0 0 48.986328 46.990234 A 1.0001 1.0001 0 0 0 48.310547 48.673828 C 50.14607 50.684163 52 53.462873 52 55 C 52 56.666667 51.190259 58.111159 49.765625 59.207031 C 48.340991 60.302904 46.3 61 44 61 C 43.91667 61 42.721802 60.9393 41.222656 60.845703 C 39.723511 60.752103 37.809152 60.626933 35.908203 60.501953 C 35.147278 60.451925 34.540261 60.413256 33.810547 60.365234 L 43.896484 49.292969 A 0.50005 0.50005 0 0 0 44.070312 49.103516 L 46.238281 46.724609 A 0.50005 0.50005 0 0 0 46.373047 46.574219 L 54.9375 37.175781 C 57.019314 37.534092 58.961751 38.473363 60.535156 39.931641 L 77.298828 55.466797 C 77.670828 55.810797 78.15125 56 78.65625 56 L 88 56 C 88.553 56 89 55.552 89 55 C 89 54.448 88.553 54 88 54 L 78.65625 54 L 61.896484 38.464844 C 60.344055 37.026119 58.485827 36.020908 56.484375 35.476562 L 65.695312 25.367188 C 67.55136 23.330416 67.405195 20.157787 65.367188 18.302734 C 64.349723 17.375652 63.046778 16.948448 61.767578 17.007812 z M 61.816406 18.001953 C 62.837704 17.954765 63.876172 18.298371 64.693359 19.042969 C 66.331352 20.533916 66.448986 23.056131 64.957031 24.693359 L 45.900391 45.609375 L 40 40.257812 L 58.369141 20.048828 A 0.50005 0.50005 0 0 0 58.435547 19.974609 L 59.044922 19.304688 C 59.790979 18.487122 60.795108 18.049141 61.816406 18.001953 z M 33.984375 37 L 41.607422 37 L 39.060547 39.802734 A 0.50005 0.50005 0 0 0 38.785156 40.107422 L 36.703125 42.396484 A 0.50005 0.50005 0 0 0 36.507812 42.609375 L 19.146484 61.708984 C 18.499435 62.405993 17.569565 62.808576 16.585938 62.810547 L 16.580078 62.810547 C 15.558078 62.810547 14.581391 62.382719 13.900391 61.636719 C 12.704391 60.324719 12.763203 58.200781 14.033203 56.800781 L 30.652344 38.476562 C 31.502344 37.537562 32.717375 37 33.984375 37 z M 39.326172 40.996094 L 45.228516 46.347656 L 43.582031 48.154297 L 37.683594 42.804688 L 39.326172 40.996094 z M 37.011719 43.544922 L 42.908203 48.894531 L 32.535156 60.28125 C 31.926288 60.241322 31.184768 60.191638 30.667969 60.158203 C 29.942787 60.111283 29.327523 60.072433 28.873047 60.044922 C 28.418571 60.017414 28.216178 60 28 60 C 25.379633 60 22.957572 61.736357 22.226562 64.384766 C 21.640485 66.473259 22.254601 68.615102 23.642578 70.097656 L 23.142578 70.691406 C 22.593791 71.296836 21.937705 71.793091 21.205078 72.154297 L 16.267578 74.589844 L 13.966797 72.501953 L 15.951172 67.363281 C 16.23896 66.61689 16.661549 65.932301 17.199219 65.339844 L 37.011719 43.544922 z M 30.492188 63.992188 A 0.50005 0.50005 0 0 0 30 64.5 C 30 66.769737 29.296875 68.291016 29.296875 68.291016 A 0.50005 0.50005 0 1 0 30.203125 68.708984 C 30.203125 68.708984 31 66.980263 31 64.5 A 0.50005 0.50005 0 0 0 30.492188 63.992188 z M 42.498047 70.421875 A 0.50005 0.50005 0 0 0 42.355469 71.402344 L 45.355469 72.314453 A 0.50005 0.50005 0 1 0 45.644531 71.357422 L 42.644531 70.445312 A 0.50005 0.50005 0 0 0 42.498047 70.421875 z M 26.013672 71.638672 C 26.135746 71.68134 26.251223 71.735901 26.376953 71.771484 L 26.359375 71.767578 L 32.306641 73.574219 C 31.68022 74.43729 30.666017 75 29.5 75 C 27.595741 75 26.086659 73.523062 26.013672 71.638672 z M 48.498047 72.244141 A 0.50005 0.50005 0 0 0 48.355469 73.224609 L 50.835938 73.978516 A 0.50005 0.50005 0 0 0 50.980469 74 L 76.5 74 A 0.50005 0.50005 0 1 0 76.5 73 L 51.054688 73 L 48.644531 72.267578 A 0.50005 0.50005 0 0 0 48.498047 72.244141 z M 80.5 73 A 0.50005 0.50005 0 1 0 80.5 74 L 85.5 74 A 0.50005 0.50005 0 1 0 85.5 73 L 80.5 73 z M 34.279297 74.173828 L 40.931641 76.195312 C 40.614414 77.806908 39.213242 79 37.5 79 C 35.548153 79 34 77.451847 34 75.5 C 34 75.083049 34.077308 74.682985 34.210938 74.308594 C 34.239003 74.26202 34.253111 74.220017 34.279297 74.173828 z M 43.072266 76.845703 L 49.708984 78.863281 C 49.179787 80.117216 47.959839 81 46.5 81 C 44.548153 81 43 79.451847 43 77.5 C 43 77.2734 43.032113 77.057729 43.072266 76.845703 z"/></svg>