<svg xmlns="http://www.w3.org/2000/svg"  viewBox="0 0 64 64" width="64px" height="64px"><linearGradient id="SVGID_1_" x1="32" x2="32" y1="-195.667" y2="-242.171" gradientTransform="matrix(1 0 0 -1 0 -187)" gradientUnits="userSpaceOnUse"><stop offset="0" stop-color="#1a6dff"/><stop offset="1" stop-color="#c822ff"/></linearGradient><path fill="url(#SVGID_1_)" d="M47.8,33c0.1-0.3,0.2-0.7,0.2-1v-4c0-1.3-0.8-2.4-2-2.8v-2.4c1.2-0.4,2-1.5,2-2.8v-4c0-1.7-1.3-3-3-3h-1v-1	c0-1.7-1.3-3-3-3H13c-1.7,0-3,1.3-3,3v1H9c-1.7,0-3,1.3-3,3v4c0,1.3,0.8,2.4,2,2.8v2.4c-1.2,0.4-2,1.5-2,2.8v4c0,1.3,0.8,2.4,2,2.8	v2.4c-1.2,0.4-2,1.5-2,2.8v4c0,1.7,1.3,3,3,3h1v1c0,1.7,1.3,3,3,3h25.5c2,2.4,5.1,4,8.5,4c6.1,0,11-4.9,11-11	C58,38.2,53.5,33.5,47.8,33z M38.5,37H10v-2h30.7C39.9,35.6,39.2,36.2,38.5,37z M44,23v2H10v-2H44z M12,12c0-0.6,0.4-1,1-1h28	c0.6,0,1,0.4,1,1v1H12V12z M8,16c0-0.6,0.4-1,1-1h36c0.6,0,1,0.4,1,1v4c0,0.6-0.4,1-1,1H9c-0.6,0-1-0.4-1-1V16z M8,28	c0-0.6,0.4-1,1-1h36c0.6,0,1,0.4,1,1v4c0,0.6-0.4,1-1,1H9c-0.6,0-1-0.4-1-1V28z M8,44v-4c0-0.6,0.4-1,1-1h28.2	c-0.8,1.5-1.2,3.2-1.2,5c0,0.3,0,0.7,0.1,1H9C8.4,45,8,44.6,8,44z M13,49c-0.6,0-1-0.4-1-1v-1h24.4c0.2,0.7,0.5,1.4,0.8,2H13z M47,53c-5,0-9-4-9-9s4-9,9-9s9,4,9,9S52,53,47,53z"/><linearGradient id="SVGID_2_" x1="39" x2="39" y1="-195.667" y2="-242.171" gradientTransform="matrix(1 0 0 -1 0 -187)" gradientUnits="userSpaceOnUse"><stop offset="0" stop-color="#1a6dff"/><stop offset="1" stop-color="#c822ff"/></linearGradient><path fill="url(#SVGID_2_)" d="M36,29h6v2h-6V29z"/><linearGradient id="SVGID_3_" x1="39" x2="39" y1="-195.667" y2="-242.171" gradientTransform="matrix(1 0 0 -1 0 -187)" gradientUnits="userSpaceOnUse"><stop offset="0" stop-color="#1a6dff"/><stop offset="1" stop-color="#c822ff"/></linearGradient><path fill="url(#SVGID_3_)" d="M36,17h6v2h-6V17z"/><linearGradient id="SVGID_4_" x1="14" x2="14" y1="-195.667" y2="-242.171" gradientTransform="matrix(1 0 0 -1 0 -187)" gradientUnits="userSpaceOnUse"><stop offset="0" stop-color="#1a6dff"/><stop offset="1" stop-color="#c822ff"/></linearGradient><path fill="url(#SVGID_4_)" d="M12,29h4v2h-4V29z"/><linearGradient id="SVGID_5_" x1="20" x2="20" y1="-195.667" y2="-242.171" gradientTransform="matrix(1 0 0 -1 0 -187)" gradientUnits="userSpaceOnUse"><stop offset="0" stop-color="#1a6dff"/><stop offset="1" stop-color="#c822ff"/></linearGradient><path fill="url(#SVGID_5_)" d="M18,29h4v2h-4V29z"/><linearGradient id="SVGID_6_" x1="14" x2="14" y1="-195.667" y2="-242.171" gradientTransform="matrix(1 0 0 -1 0 -187)" gradientUnits="userSpaceOnUse"><stop offset="0" stop-color="#1a6dff"/><stop offset="1" stop-color="#c822ff"/></linearGradient><path fill="url(#SVGID_6_)" d="M12,41h4v2h-4V41z"/><linearGradient id="SVGID_7_" x1="20" x2="20" y1="-195.667" y2="-242.171" gradientTransform="matrix(1 0 0 -1 0 -187)" gradientUnits="userSpaceOnUse"><stop offset="0" stop-color="#1a6dff"/><stop offset="1" stop-color="#c822ff"/></linearGradient><path fill="url(#SVGID_7_)" d="M18,41h4v2h-4V41z"/><linearGradient id="SVGID_8_" x1="14" x2="14" y1="-195.667" y2="-242.171" gradientTransform="matrix(1 0 0 -1 0 -187)" gradientUnits="userSpaceOnUse"><stop offset="0" stop-color="#1a6dff"/><stop offset="1" stop-color="#c822ff"/></linearGradient><path fill="url(#SVGID_8_)" d="M12,17h4v2h-4V17z"/><linearGradient id="SVGID_9_" x1="20" x2="20" y1="-195.667" y2="-242.171" gradientTransform="matrix(1 0 0 -1 0 -187)" gradientUnits="userSpaceOnUse"><stop offset="0" stop-color="#1a6dff"/><stop offset="1" stop-color="#c822ff"/></linearGradient><path fill="url(#SVGID_9_)" d="M18,17h4v2h-4V17z"/><linearGradient id="SVGID_10_" x1="46.277" x2="46.277" y1="34.638" y2="49.139" gradientUnits="userSpaceOnUse"><stop offset="0" stop-color="#6dc7ff"/><stop offset="1" stop-color="#e6abff"/></linearGradient><path fill="url(#SVGID_10_)" d="M47,49v-2h2v-2h-2v-1.1c1.5-0.4,2.6-1.8,2.6-3.4c0-1.9-1.6-3.5-3.5-3.5s-3.5,1.6-3.5,3.5c0,1.6,1,2.9,2.4,3.3	V49c0,1.1,0.9,2,2,2h3v-2H47z M44.6,40.5c0-0.8,0.7-1.5,1.5-1.5s1.5,0.7,1.5,1.5S46.9,42,46.1,42S44.6,41.3,44.6,40.5z"/></svg>