<svg xmlns="http://www.w3.org/2000/svg"  viewBox="0 0 64 64" width="64px" height="64px"><linearGradient id="IMv2ccDVgcw016_WP7a4va" x1="10.5" x2="10.5" y1="44.532" y2="59.936" gradientUnits="userSpaceOnUse"><stop offset="0" stop-color="#6dc7ff"/><stop offset="1" stop-color="#e6abff"/></linearGradient><rect width="3" height="2" x="9" y="46" fill="url(#IMv2ccDVgcw016_WP7a4va)"/><linearGradient id="IMv2ccDVgcw016_WP7a4vb" x1="15" x2="15" y1="44.532" y2="59.936" gradientUnits="userSpaceOnUse"><stop offset="0" stop-color="#6dc7ff"/><stop offset="1" stop-color="#e6abff"/></linearGradient><path fill="url(#IMv2ccDVgcw016_WP7a4vb)" d="M9.5,56C8.673,56,8,55.327,8,54.5S8.673,53,9.5,53h8c1.93,0,3.5-1.57,3.5-3.5 S19.43,46,17.5,46H14v2h3.5c0.827,0,1.5,0.673,1.5,1.5S18.327,51,17.5,51h-8C7.57,51,6,52.57,6,54.5S7.57,58,9.5,58H24v-2H9.5z"/><linearGradient id="IMv2ccDVgcw016_WP7a4vc" x1="32" x2="32" y1="6.872" y2="59.472" gradientUnits="userSpaceOnUse"><stop offset="0" stop-color="#1a6dff"/><stop offset="1" stop-color="#c822ff"/></linearGradient><path fill="url(#IMv2ccDVgcw016_WP7a4vc)" d="M55,10h-4c-1.654,0-3,1.346-3,3v2H36v-2c0-0.553-0.448-1-1-1v-1.5C35,8.019,32.757,6,30,6	s-5,2.019-5,4.5V12c-0.552,0-1,0.447-1,1v2H10c-2.206,0-4,1.794-4,4s1.794,4,4,4h14v0.036c-3.175,2.578-5,6.354-5,10.464	s1.825,7.885,5,10.464V49c0,0.004,0.002,0.008,0.003,0.012c0.001,0.064,0.025,0.127,0.039,0.192	c0.014,0.067,0.019,0.136,0.045,0.197c0.002,0.004,0.001,0.008,0.003,0.012l3.304,7.286c0.018,0.04,0.039,0.079,0.063,0.116	c0.552,0.884,1.503,1.411,2.544,1.411s1.992-0.527,2.544-1.411c0.023-0.037,0.044-0.076,0.063-0.116l3.304-7.286	c0.002-0.004,0.001-0.008,0.003-0.012c0.027-0.061,0.031-0.13,0.045-0.197c0.014-0.065,0.038-0.128,0.039-0.192	C35.998,49.008,36,49.004,36,49v-2.521c0.257-0.033,0.514-0.083,0.768-0.167c5.657-1.884,9.449-7.368,9.222-13.337	c-0.015-0.391-0.047-0.781-0.097-1.17h2.231C48.478,33.067,49.626,34,51,34h4c1.654,0,3-1.346,3-3V13C58,11.346,56.654,10,55,10z M24,41.225c-1.917-2.098-3-4.812-3-7.725s1.083-5.627,3-7.725V41.225z M24,21H10c-1.103,0-2-0.897-2-2s0.897-2,2-2h14V21z M36,29.268c1.252,1.03,2,2.557,2,4.232c0,1.674-0.765,3.204-2,4.227V29.268z M27,10.5C27,9.121,28.346,8,30,8s3,1.121,3,2.5V12h-6	V10.5z M26,14h8v1v2h-8V14z M31.634,54h-3.269l-1.814-4h6.897L31.634,54z M34,48h-8V38h4v-2h-4v-2h4v-2h-4v-2h4v-2h-4v-9h8v19.785	c0,0.013,0.007,0.023,0.007,0.036c-1.506,0.623-2.507,2.067-2.507,3.689c0,1.303,0.607,2.487,1.665,3.25	c0.263,0.189,0.545,0.332,0.835,0.452V48z M43.727,31.024c0.15,0.664,0.239,1.346,0.265,2.026c0.193,5.086-3.037,9.759-7.855,11.363	c-0.616,0.204-1.272,0.104-1.801-0.277c-0.53-0.382-0.834-0.976-0.834-1.627c0-0.855,0.562-1.619,1.4-1.902	c3.05-1.029,5.1-3.886,5.1-7.107c0-2.807-1.531-5.315-4-6.62V17h12v12.805h-4.548L43.727,31.024z M56,31c0,0.552-0.449,1-1,1h-1v-6	h-2v6h-1c-0.551,0-1-0.448-1-1V13c0-0.552,0.449-1,1-1h4c0.551,0,1,0.448,1,1V31z"/><g><linearGradient id="IMv2ccDVgcw016_WP7a4vd" x1="30" x2="30" y1="13.096" y2="17.948" gradientUnits="userSpaceOnUse"><stop offset="0" stop-color="#6dc7ff"/><stop offset="1" stop-color="#e6abff"/></linearGradient><rect width="8" height="3" x="26" y="14" fill="url(#IMv2ccDVgcw016_WP7a4vd)"/></g></svg>