<svg xmlns="http://www.w3.org/2000/svg"  viewBox="0 0 512 512" width="64px" height="64px"><path fill="#d7deed" d="M383.461,485.5h-279.67V105.17c0-21.91,17.76-39.67,39.67-39.67c13.064,0,250.003,0,260,0V66 c-11.41,2.32-20,12.4-20,24.5C383.461,149.896,383.461,426.036,383.461,485.5z"/><path fill="#f88f19" d="M458.461,385.5c8.28,0,15,6.72,15,15s-6.72,15-15,15s-15-6.72-15-15S450.181,385.5,458.461,385.5z"/><path fill="#f88f19" d="M43.461,85.5c11.05,0,20,8.95,20,20s-8.95,20-20,20s-20-8.95-20-20S32.411,85.5,43.461,85.5z"/><path fill="#f88f19" d="M48.461,385.5c8.279,0,15,6.72,15,15s-6.721,15-15,15c-8.28,0-15-6.72-15-15 S40.181,385.5,48.461,385.5z"/><path fill="#afb9d2" d="M433.461,90.5v155h-50v-155c0-12.1,8.59-22.18,20-24.5c1.62-0.33,3.29-0.5,5-0.5 c6.9,0,13.16,2.8,17.68,7.32C430.661,77.34,433.461,83.6,433.461,90.5z"/><path fill="#94d4ff" d="M463.461,35.5c5.52,0,10,4.48,10,10s-4.48,10-10,10s-10-4.48-10-10S457.941,35.5,463.461,35.5z"/><path fill="#94d4ff" d="M433.461,435.5c5.52,0,10,4.48,10,10s-4.48,10-10,10s-10-4.48-10-10S427.941,435.5,433.461,435.5z"/><path fill="#3256c1" d="M143.461,285.5c5.52,0,10,4.48,10,10s-4.48,10-10,10c-5.521,0-10-4.48-10-10 S137.94,285.5,143.461,285.5z"/><path fill="#94d4ff" d="M83.461,35.5c5.52,0,10,4.48,10,10s-4.48,10-10,10c-5.521,0-10-4.48-10-10S77.94,35.5,83.461,35.5z"/><path fill="#94d4ff" d="M73.461,305.5c5.52,0,10,4.48,10,10s-4.48,10-10,10c-5.521,0-10-4.48-10-10 S67.94,305.5,73.461,305.5z"/><path fill="#94d4ff" d="M43.461,175.5c5.52,0,10,4.48,10,10s-4.48,10-10,10c-5.521,0-10-4.48-10-10 S37.94,175.5,43.461,175.5z"/><path fill="#3256c1" d="M273.461,335.5h-130c-5.523,0-10-4.478-10-10s4.477-10,10-10h130c5.522,0,10,4.478,10,10 S278.983,335.5,273.461,335.5z"/><path fill="#3256c1" d="M343.461,305.5h-170c-5.523,0-10-4.478-10-10s4.477-10,10-10h170c5.522,0,10,4.478,10,10 S348.983,305.5,343.461,305.5z"/><path fill="#3256c1" d="M343.461,275.5h-200c-5.523,0-10-4.478-10-10s4.477-10,10-10h200c5.522,0,10,4.478,10,10 S348.983,275.5,343.461,275.5z"/><path fill="#3256c1" d="M343.461,245.5h-200c-5.523,0-10-4.477-10-10s4.477-10,10-10h200c5.522,0,10,4.477,10,10 S348.983,245.5,343.461,245.5z"/><path fill="#3256c1" d="M253.461,215.5h-110c-5.523,0-10-4.477-10-10s4.477-10,10-10h110c5.522,0,10,4.477,10,10 S258.983,215.5,253.461,215.5z"/><path fill="#3256c1" d="M153.46,455.5c-0.767,0-1.536-0.088-2.297-0.268c-2.886-0.682-5.32-2.608-6.646-5.261l-10-20 c-2.47-4.939-0.468-10.946,4.472-13.416c4.941-2.47,10.946-0.467,13.417,4.473l4.642,9.282l30.414-22.811 c2.533-1.899,5.816-2.487,8.852-1.585c3.034,0.903,5.463,3.189,6.545,6.165l7.605,20.9h56.648c5.522,0,10,4.478,10,10 s-4.478,10-10,10h-63.65c-4.204,0-7.96-2.63-9.397-6.58l-5.39-14.811l-29.213,21.91C157.714,454.811,155.604,455.5,153.46,455.5z"/><path fill="#d94556" d="M439.891,313.36c2.771,3.63,4.11,7.899,4.11,12.13c0,6.02-2.71,11.97-7.86,15.899l-15.899,12.15 l-24.28-31.79l15.9-12.14C420.631,302.9,433.181,304.58,439.891,313.36z"/><polygon fill="#57606f" points="395.961,321.75 420.241,353.54 373.351,389.36 293.091,450.66 257.111,452.98 268.811,418.87 373.461,338.94"/></svg>